<svg xmlns="http://www.w3.org/2000/svg" xmlns:xlink="http://www.w3.org/1999/xlink" width="600" zoomAndPan="magnify" viewBox="0 0 450 142.499996" height="190" preserveAspectRatio="xMidYMid meet" version="1.0"><defs><g/><clipPath id="24c03480de"><path d="M 14.988281 8.027344 L 140.9375 8.027344 L 140.9375 133.976562 L 14.988281 133.976562 Z M 14.988281 8.027344 " clip-rule="nonzero"/></clipPath><clipPath id="d9c27428ed"><path d="M 77.960938 8.027344 C 43.183594 8.027344 14.988281 36.21875 14.988281 71 C 14.988281 105.78125 43.183594 133.976562 77.960938 133.976562 C 112.742188 133.976562 140.9375 105.78125 140.9375 71 C 140.9375 36.21875 112.742188 8.027344 77.960938 8.027344 Z M 77.960938 8.027344 " clip-rule="nonzero"/></clipPath><clipPath id="5275bb4640"><path d="M 101 49 L 158 49 L 158 103 L 101 103 Z M 101 49 " clip-rule="nonzero"/></clipPath><clipPath id="8864768904"><path d="M 119.230469 49.238281 L 157.21875 68.515625 L 139.773438 102.890625 L 101.785156 83.609375 Z M 119.230469 49.238281 " clip-rule="nonzero"/></clipPath><clipPath id="cf37a0cbe8"><path d="M 40.335938 33.75 L 115.714844 33.75 L 115.714844 108.253906 L 40.335938 108.253906 Z M 40.335938 33.75 " clip-rule="nonzero"/></clipPath><clipPath id="f29f138cc6"><path d="M 77.960938 33.75 C 57.183594 33.75 40.335938 50.425781 40.335938 71 C 40.335938 91.574219 57.183594 108.253906 77.960938 108.253906 C 98.742188 108.253906 115.589844 91.574219 115.589844 71 C 115.589844 50.425781 98.742188 33.75 77.960938 33.75 Z M 77.960938 33.75 " clip-rule="nonzero"/></clipPath><clipPath id="82b38926f8"><path d="M 101 37 L 150 37 L 150 76 L 101 76 Z M 101 37 " clip-rule="nonzero"/></clipPath><clipPath id="4f68396287"><path d="M 101.765625 56.328125 L 140.210938 37.976562 L 149.386719 57.199219 L 110.941406 75.550781 Z M 101.765625 56.328125 " clip-rule="nonzero"/></clipPath><clipPath id="a74ce0ff15"><path d="M 109.328125 82.257812 L 134.6875 82.257812 L 134.6875 108.308594 L 109.328125 108.308594 Z M 109.328125 82.257812 " clip-rule="nonzero"/></clipPath><clipPath id="d4699ce6c0"><path d="M 122.007812 82.257812 C 115.003906 82.257812 109.328125 88.078125 109.328125 95.253906 C 109.328125 102.433594 115.003906 108.253906 122.007812 108.253906 C 129.007812 108.253906 134.6875 102.433594 134.6875 95.253906 C 134.6875 88.078125 129.007812 82.257812 122.007812 82.257812 Z M 122.007812 82.257812 " clip-rule="nonzero"/></clipPath><clipPath id="ef77d2d5eb"><path d="M 109.328125 33.75 L 134.6875 33.75 L 134.6875 59.800781 L 109.328125 59.800781 Z M 109.328125 33.75 " clip-rule="nonzero"/></clipPath><clipPath id="15c2325bdd"><path d="M 122.007812 33.75 C 115.003906 33.75 109.328125 39.570312 109.328125 46.75 C 109.328125 53.929688 115.003906 59.75 122.007812 59.75 C 129.007812 59.75 134.6875 53.929688 134.6875 46.75 C 134.6875 39.570312 129.007812 33.75 122.007812 33.75 Z M 122.007812 33.75 " clip-rule="nonzero"/></clipPath><clipPath id="7dd553df52"><path d="M 60.191406 53.230469 L 95.730469 53.230469 L 95.730469 88.769531 L 60.191406 88.769531 Z M 60.191406 53.230469 " clip-rule="nonzero"/></clipPath><clipPath id="9c328fc13a"><path d="M 77.960938 53.230469 C 68.148438 53.230469 60.191406 61.1875 60.191406 71 C 60.191406 80.816406 68.148438 88.769531 77.960938 88.769531 C 87.777344 88.769531 95.730469 80.816406 95.730469 71 C 95.730469 61.1875 87.777344 53.230469 77.960938 53.230469 Z M 77.960938 53.230469 " clip-rule="nonzero"/></clipPath></defs><g fill="#000000" fill-opacity="1"><g transform="translate(157.219341, 93.991624)"><g><path d="M 31.046875 -11.96875 L 32.171875 -12.78125 C 33.585938 -13.613281 34.582031 -14.03125 35.15625 -14.03125 C 36.445312 -14.03125 37.84375 -12.863281 39.34375 -10.53125 C 40.25 -9.082031 40.703125 -7.921875 40.703125 -7.046875 C 40.703125 -6.171875 40.421875 -5.441406 39.859375 -4.859375 C 39.304688 -4.273438 38.65625 -3.753906 37.90625 -3.296875 C 37.15625 -2.847656 36.4375 -2.414062 35.75 -2 C 35.0625 -1.582031 33.65625 -1.039062 31.53125 -0.375 C 29.414062 0.289062 27.367188 0.625 25.390625 0.625 C 23.421875 0.625 21.425781 0.363281 19.40625 -0.15625 C 17.394531 -0.675781 15.316406 -1.546875 13.171875 -2.765625 C 11.035156 -3.992188 9.113281 -5.488281 7.40625 -7.25 C 5.707031 -9.019531 4.304688 -11.285156 3.203125 -14.046875 C 2.109375 -16.816406 1.5625 -19.820312 1.5625 -23.0625 C 1.5625 -26.3125 2.097656 -29.253906 3.171875 -31.890625 C 4.253906 -34.523438 5.632812 -36.703125 7.3125 -38.421875 C 9 -40.148438 10.925781 -41.597656 13.09375 -42.765625 C 17.164062 -45.015625 21.257812 -46.140625 25.375 -46.140625 C 27.320312 -46.140625 29.300781 -45.835938 31.3125 -45.234375 C 33.332031 -44.628906 34.863281 -44.015625 35.90625 -43.390625 L 37.40625 -42.515625 C 38.15625 -42.054688 38.738281 -41.679688 39.15625 -41.390625 C 40.226562 -40.523438 40.765625 -39.539062 40.765625 -38.4375 C 40.765625 -37.332031 40.332031 -36.175781 39.46875 -34.96875 C 37.84375 -32.726562 36.382812 -31.609375 35.09375 -31.609375 C 34.351562 -31.609375 33.296875 -32.066406 31.921875 -32.984375 C 30.171875 -34.390625 27.84375 -35.09375 24.9375 -35.09375 C 22.238281 -35.09375 19.578125 -34.160156 16.953125 -32.296875 C 15.710938 -31.378906 14.675781 -30.085938 13.84375 -28.421875 C 13.007812 -26.765625 12.59375 -24.882812 12.59375 -22.78125 C 12.59375 -20.6875 13.007812 -18.804688 13.84375 -17.140625 C 14.675781 -15.484375 15.734375 -14.175781 17.015625 -13.21875 C 19.554688 -11.382812 22.195312 -10.46875 24.9375 -10.46875 C 26.226562 -10.46875 27.441406 -10.632812 28.578125 -10.96875 C 29.722656 -11.300781 30.546875 -11.632812 31.046875 -11.96875 Z M 31.046875 -11.96875 "/></g></g></g><g fill="#000000" fill-opacity="1"><g transform="translate(200.488743, 93.991624)"><g><path d="M 32.359375 -44.015625 C 32.773438 -44.679688 33.375 -45.140625 34.15625 -45.390625 C 34.945312 -45.640625 35.9375 -45.765625 37.125 -45.765625 C 38.3125 -45.765625 39.253906 -45.660156 39.953125 -45.453125 C 40.660156 -45.242188 41.203125 -44.992188 41.578125 -44.703125 C 41.953125 -44.410156 42.222656 -43.972656 42.390625 -43.390625 C 42.640625 -42.679688 42.765625 -41.601562 42.765625 -40.15625 L 42.765625 -21.328125 C 42.765625 -15.835938 41.0625 -10.847656 37.65625 -6.359375 C 35.988281 -4.234375 33.847656 -2.515625 31.234375 -1.203125 C 28.617188 0.0976562 25.71875 0.75 22.53125 0.75 C 19.351562 0.75 16.460938 0.0859375 13.859375 -1.234375 C 11.265625 -2.566406 9.160156 -4.316406 7.546875 -6.484375 C 4.179688 -10.890625 2.5 -15.878906 2.5 -21.453125 L 2.5 -40.21875 C 2.5 -41.207031 2.53125 -41.941406 2.59375 -42.421875 C 2.65625 -42.898438 2.847656 -43.453125 3.171875 -44.078125 C 3.503906 -44.703125 4.066406 -45.140625 4.859375 -45.390625 C 5.648438 -45.640625 6.707031 -45.765625 8.03125 -45.765625 C 9.363281 -45.765625 10.425781 -45.640625 11.21875 -45.390625 C 12.007812 -45.140625 12.550781 -44.703125 12.84375 -44.078125 C 13.34375 -43.117188 13.59375 -41.8125 13.59375 -40.15625 L 13.59375 -21.453125 C 13.59375 -18.910156 14.21875 -16.5 15.46875 -14.21875 C 16.082031 -13.050781 17.015625 -12.113281 18.265625 -11.40625 C 19.515625 -10.695312 20.988281 -10.34375 22.6875 -10.34375 C 25.726562 -10.34375 27.992188 -11.460938 29.484375 -13.703125 C 30.984375 -15.953125 31.734375 -18.554688 31.734375 -21.515625 L 31.734375 -40.578125 C 31.734375 -42.203125 31.941406 -43.347656 32.359375 -44.015625 Z M 32.359375 -44.015625 "/></g></g></g><g fill="#000000" fill-opacity="1"><g transform="translate(246.688494, 93.991624)"><g><path d="M 51.0625 -43.953125 C 51.394531 -43.328125 51.59375 -42.765625 51.65625 -42.265625 C 51.71875 -41.765625 51.75 -41.039062 51.75 -40.09375 L 51.75 -5.484375 C 51.75 -2.617188 50.957031 -0.9375 49.375 -0.4375 C 48.582031 -0.1875 47.582031 -0.0625 46.375 -0.0625 C 45.175781 -0.0625 44.222656 -0.164062 43.515625 -0.375 C 42.804688 -0.582031 42.265625 -0.832031 41.890625 -1.125 C 41.515625 -1.414062 41.222656 -1.832031 41.015625 -2.375 C 40.804688 -3.070312 40.703125 -4.148438 40.703125 -5.609375 L 40.703125 -26.5 C 39.671875 -25.207031 38.15625 -23.15625 36.15625 -20.34375 C 34.164062 -17.539062 32.898438 -15.785156 32.359375 -15.078125 C 31.816406 -14.378906 31.441406 -13.894531 31.234375 -13.625 C 31.023438 -13.351562 30.515625 -12.976562 29.703125 -12.5 C 28.890625 -12.019531 28.015625 -11.78125 27.078125 -11.78125 C 26.148438 -11.78125 25.300781 -12 24.53125 -12.4375 C 23.757812 -12.875 23.207031 -13.300781 22.875 -13.71875 L 22.375 -14.40625 C 21.550781 -15.4375 19.910156 -17.644531 17.453125 -21.03125 C 15.003906 -24.425781 13.675781 -26.25 13.46875 -26.5 L 13.46875 -5.484375 C 13.46875 -4.523438 13.4375 -3.804688 13.375 -3.328125 C 13.3125 -2.859375 13.113281 -2.332031 12.78125 -1.75 C 12.15625 -0.625 10.535156 -0.0625 7.921875 -0.0625 C 5.378906 -0.0625 3.796875 -0.625 3.171875 -1.75 C 2.847656 -2.332031 2.65625 -2.867188 2.59375 -3.359375 C 2.53125 -3.859375 2.5 -4.609375 2.5 -5.609375 L 2.5 -40.21875 C 2.5 -41.164062 2.53125 -41.878906 2.59375 -42.359375 C 2.65625 -42.835938 2.847656 -43.390625 3.171875 -44.015625 C 3.796875 -45.097656 5.421875 -45.640625 8.046875 -45.640625 C 9.160156 -45.640625 10.125 -45.503906 10.9375 -45.234375 C 11.75 -44.960938 12.28125 -44.679688 12.53125 -44.390625 L 12.90625 -44.015625 L 27.0625 -25.4375 C 34.125 -34.789062 38.835938 -40.960938 41.203125 -43.953125 C 41.910156 -45.078125 43.582031 -45.640625 46.21875 -45.640625 C 48.863281 -45.640625 50.476562 -45.078125 51.0625 -43.953125 Z M 51.0625 -43.953125 "/></g></g></g><g fill="#000000" fill-opacity="1"><g transform="translate(301.866329, 93.991624)"><g><path d="M 35.03125 -24.5 C 37.488281 -21.59375 38.71875 -18.332031 38.71875 -14.71875 C 38.632812 -10.5625 37.207031 -7.078125 34.4375 -4.265625 C 31.675781 -1.460938 28.320312 -0.0625 24.375 -0.0625 L 7.984375 -0.0625 C 5.066406 -0.0625 3.363281 -0.851562 2.875 -2.4375 C 2.625 -3.132812 2.5 -4.210938 2.5 -5.671875 L 2.5 -40.28125 C 2.5 -41.269531 2.53125 -41.992188 2.59375 -42.453125 C 2.65625 -42.910156 2.847656 -43.453125 3.171875 -44.078125 C 3.753906 -45.203125 5.378906 -45.765625 8.046875 -45.765625 L 23.75 -45.765625 C 27.570312 -45.765625 30.773438 -44.429688 33.359375 -41.765625 C 36.054688 -39.066406 37.40625 -35.828125 37.40625 -32.046875 C 37.40625 -29.304688 36.613281 -26.789062 35.03125 -24.5 Z M 27.6875 -15.34375 C 27.6875 -16.332031 27.570312 -17.117188 27.34375 -17.703125 C 27.113281 -18.285156 26.726562 -18.703125 26.1875 -18.953125 C 25.351562 -19.285156 24.1875 -19.453125 22.6875 -19.453125 C 21.195312 -19.453125 20.078125 -19.742188 19.328125 -20.328125 C 18.578125 -20.910156 18.203125 -22.101562 18.203125 -23.90625 C 18.203125 -25.71875 18.585938 -26.910156 19.359375 -27.484375 C 20.128906 -28.066406 21.40625 -28.359375 23.1875 -28.359375 C 24.851562 -28.359375 25.851562 -28.796875 26.1875 -29.671875 C 26.3125 -30.128906 26.375 -30.878906 26.375 -31.921875 C 26.375 -32.960938 26.03125 -33.6875 25.34375 -34.09375 C 24.65625 -34.507812 23.625 -34.71875 22.25 -34.71875 L 13.53125 -34.71875 L 13.53125 -11.09375 L 23.75 -11.09375 C 26.375 -11.09375 27.6875 -12.507812 27.6875 -15.34375 Z M 27.6875 -15.34375 "/></g></g></g><g fill="#000000" fill-opacity="1"><g transform="translate(343.078257, 93.991624)"><g><path d="M 37.46875 -7.734375 C 38.09375 -6.234375 38.40625 -5.148438 38.40625 -4.484375 C 38.40625 -2.910156 37.113281 -1.582031 34.53125 -0.5 C 33.207031 0.0820312 32.140625 0.375 31.328125 0.375 C 30.515625 0.375 29.847656 0.175781 29.328125 -0.21875 C 28.804688 -0.613281 28.421875 -1.019531 28.171875 -1.4375 C 27.765625 -2.226562 26.144531 -5.988281 23.3125 -12.71875 L 21.390625 -12.59375 L 13.53125 -12.59375 L 13.53125 -5.546875 C 13.53125 -4.585938 13.5 -3.867188 13.4375 -3.390625 C 13.375 -2.921875 13.175781 -2.375 12.84375 -1.75 C 12.257812 -0.625 10.640625 -0.0625 7.984375 -0.0625 C 5.066406 -0.0625 3.363281 -0.832031 2.875 -2.375 C 2.625 -3.070312 2.5 -4.148438 2.5 -5.609375 L 2.5 -40.21875 C 2.5 -41.164062 2.53125 -41.878906 2.59375 -42.359375 C 2.65625 -42.835938 2.847656 -43.390625 3.171875 -44.015625 C 3.753906 -45.140625 5.378906 -45.703125 8.046875 -45.703125 L 21.515625 -45.703125 C 25.171875 -45.703125 28.722656 -44.367188 32.171875 -41.703125 C 33.828125 -40.421875 35.195312 -38.675781 36.28125 -36.46875 C 37.363281 -34.269531 37.90625 -31.816406 37.90625 -29.109375 C 37.90625 -24.410156 36.347656 -20.546875 33.234375 -17.515625 C 34.140625 -15.316406 35.550781 -12.054688 37.46875 -7.734375 Z M 13.53125 -23.625 L 21.515625 -23.625 C 22.710938 -23.625 23.914062 -24.082031 25.125 -25 C 26.332031 -25.914062 26.9375 -27.285156 26.9375 -29.109375 C 26.9375 -30.941406 26.332031 -32.320312 25.125 -33.25 C 23.914062 -34.1875 22.671875 -34.65625 21.390625 -34.65625 L 13.53125 -34.65625 Z M 13.53125 -23.625 "/></g></g></g><g fill="#000000" fill-opacity="1"><g transform="translate(383.354958, 93.991624)"><g><path d="M 13.53125 -11.03125 L 32.734375 -11.03125 C 33.691406 -11.03125 34.40625 -11 34.875 -10.9375 C 35.351562 -10.875 35.90625 -10.675781 36.53125 -10.34375 C 37.65625 -9.757812 38.21875 -8.140625 38.21875 -5.484375 C 38.21875 -2.578125 37.445312 -0.875 35.90625 -0.375 C 35.195312 -0.125 34.117188 0 32.671875 0 L 7.984375 0 C 5.066406 0 3.363281 -0.789062 2.875 -2.375 C 2.625 -3.03125 2.5 -4.085938 2.5 -5.546875 L 2.5 -40.21875 C 2.5 -42.332031 2.890625 -43.773438 3.671875 -44.546875 C 4.460938 -45.316406 5.960938 -45.703125 8.171875 -45.703125 L 32.734375 -45.703125 C 33.691406 -45.703125 34.40625 -45.671875 34.875 -45.609375 C 35.351562 -45.546875 35.90625 -45.347656 36.53125 -45.015625 C 37.65625 -44.429688 38.21875 -42.8125 38.21875 -40.15625 C 38.21875 -37.238281 37.445312 -35.53125 35.90625 -35.03125 C 35.195312 -34.78125 34.117188 -34.65625 32.671875 -34.65625 L 13.53125 -34.65625 L 13.53125 -28.359375 L 25.875 -28.359375 C 26.832031 -28.359375 27.546875 -28.328125 28.015625 -28.265625 C 28.492188 -28.203125 29.046875 -28.007812 29.671875 -27.6875 C 30.796875 -27.101562 31.359375 -25.476562 31.359375 -22.8125 C 31.359375 -19.90625 30.566406 -18.203125 28.984375 -17.703125 C 28.285156 -17.453125 27.207031 -17.328125 25.75 -17.328125 L 13.53125 -17.328125 Z M 13.53125 -11.03125 "/></g></g></g><g clip-path="url(#24c03480de)"><g clip-path="url(#d9c27428ed)"><path fill="#000000" d="M 14.988281 8.027344 L 140.9375 8.027344 L 140.9375 133.976562 L 14.988281 133.976562 Z M 14.988281 8.027344 " fill-opacity="1" fill-rule="nonzero"/></g></g><g clip-path="url(#5275bb4640)"><g clip-path="url(#8864768904)"><path fill="#ffffff" d="M 119.230469 49.238281 L 157.226562 68.519531 L 139.78125 102.894531 L 101.785156 83.609375 Z M 119.230469 49.238281 " fill-opacity="1" fill-rule="nonzero"/></g></g><g clip-path="url(#cf37a0cbe8)"><g clip-path="url(#f29f138cc6)"><path fill="#ffffff" d="M 40.335938 33.75 L 115.714844 33.75 L 115.714844 108.253906 L 40.335938 108.253906 Z M 40.335938 33.75 " fill-opacity="1" fill-rule="nonzero"/></g></g><g clip-path="url(#82b38926f8)"><g clip-path="url(#4f68396287)"><path fill="#ffffff" d="M 101.765625 56.328125 L 140.210938 37.976562 L 149.386719 57.199219 L 110.941406 75.550781 Z M 101.765625 56.328125 " fill-opacity="1" fill-rule="nonzero"/></g></g><g clip-path="url(#a74ce0ff15)"><g clip-path="url(#d4699ce6c0)"><path fill="#000000" d="M 109.328125 82.257812 L 134.6875 82.257812 L 134.6875 108.210938 L 109.328125 108.210938 Z M 109.328125 82.257812 " fill-opacity="1" fill-rule="nonzero"/></g></g><g clip-path="url(#ef77d2d5eb)"><g clip-path="url(#15c2325bdd)"><path fill="#000000" d="M 109.328125 33.75 L 134.6875 33.75 L 134.6875 59.800781 L 109.328125 59.800781 Z M 109.328125 33.75 " fill-opacity="1" fill-rule="nonzero"/></g></g><g clip-path="url(#7dd553df52)"><g clip-path="url(#9c328fc13a)"><path fill="#000000" d="M 60.191406 53.230469 L 95.730469 53.230469 L 95.730469 88.769531 L 60.191406 88.769531 Z M 60.191406 53.230469 " fill-opacity="1" fill-rule="nonzero"/></g></g></svg>